
<svg fill="#e174aa" xmlns="http://www.w3.org/2000/svg" viewBox="0 0 568.64 486.9">
  <path d="M0,205.15l29.06-48.39c53.27,31.98,108.72,55.39,165.58,69.94C238.85,97.67,305.4,17.7,386.32,2.44c47.8-9.01,130.99,5.58,166.31,66.26,35.15,60.59,7.87,137.94-37.58,182.7-67.39,66.41-164.4,55.33-249.98,45.57-10.49-1.21-20.94-2.66-31.35-4.39-15.57,56.92-27.31,122.35-34.28,194.31h0c-31.1-3.01-53.81-31.25-49.61-62.21,7.08-52.13,16.61-100.26,28.36-143.92-61.29-15.95-120.95-41.25-178.19-75.62ZM505.23,99.63c-.45-.87-.91-1.7-1.4-2.55-20.31-34.91-75.22-45.18-107.05-39.17-58.23,10.99-109.55,76.77-146.23,180.61,82.77,8.97,172.3,24.48,224.88-27.31,28.89-28.48,47.41-77.41,29.8-111.58Z"/>
</svg>
