<?xml version="1.0" encoding="UTF-8"?>
<svg id="Calque_1" data-name="Calque 1" xmlns="http://www.w3.org/2000/svg" viewBox="0 0 22.54 33.6">
  <defs>
    <style>
      .cls-1 {
        fill: #fff;
      }
    </style>
  </defs>
  <path class="cls-1" d="M1.77,33.6l-1.77-2.86c3.22-2,6.04-4.35,8.42-7.03C2.67,17.73.2,11.91,1.63,7.12,2.47,4.3,5.56.23,9.81,0c4.25-.21,7.64,3.4,8.79,7.09,1.71,5.47-1.59,10.4-4.5,14.74-.36.54-.74,1.07-1.13,1.6,2.65,2.44,5.87,4.9,9.57,7.29h0c-1.02,1.58-3.14,1.98-4.68.9-2.64-1.85-4.99-3.71-7.03-5.57-2.57,2.88-5.6,5.4-9.06,7.54ZM10.16,3.36c-.06,0-.12,0-.18,0-2.47.13-4.57,2.82-5.13,4.72-1.03,3.47,1.1,8.09,5.71,12.98.26-.36.51-.72.75-1.08,2.61-3.9,5.31-7.94,4.08-11.88-.74-2.37-2.88-4.74-5.23-4.74Z"/>
  <circle class="cls-1" cx="10.17" cy="9.91" r="1.77"/>
</svg>